<?xml version="1.0" encoding="UTF-8" standalone="no"?>
<svg
   xmlns:dc="http://purl.org/dc/elements/1.1/"
   xmlns:cc="http://creativecommons.org/ns#"
   xmlns:rdf="http://www.w3.org/1999/02/22-rdf-syntax-ns#"
   xmlns:svg="http://www.w3.org/2000/svg"
   xmlns="http://www.w3.org/2000/svg"
   xmlns:sodipodi="http://sodipodi.sourceforge.net/DTD/sodipodi-0.dtd"
   xmlns:inkscape="http://www.inkscape.org/namespaces/inkscape"
   width="400"
   height="400"
   viewBox="0 0 105.83333 105.83333"
   version="1.1"
   id="svg8"
   inkscape:version="1.0.2 (e86c870879, 2021-01-15)"
   sodipodi:docname="footprint-otp.svg">
  <style
     id="style87" />
  <defs
     id="defs2">
    <rect
       x="20.267193"
       y="54.030751"
       width="67.745835"
       height="22.814654"
       id="rect442" />
    <inkscape:path-effect
       effect="envelope"
       id="path-effect1150"
       is_visible="true"
       lpeversion="1"
       yy="true"
       xx="false"
       bendpath1="m 121.80738,117.52077 c 23.91905,12.26848 27.97948,5.39845 69.93754,5.19985"
       bendpath2="m 196.91558,121.21633 v 22.42039"
       bendpath3="m 116.14376,143.34657 c 39.63056,-1.08824 61.32066,-3.2452 81.27841,-5.33027"
       bendpath4="m 123.38598,121.21633 c -1.18993,4.56847 -0.33822,14.12123 0,22.42039"
       bendpath1-nodetypes="cc"
       bendpath3-nodetypes="cc"
       bendpath4-nodetypes="cc" />
    <inkscape:path-effect
       effect="envelope"
       id="path-effect1148"
       is_visible="true"
       lpeversion="1"
       yy="true"
       xx="false"
       bendpath1="m 29.790187,117.50499 c 17.377331,0.3284 27.506979,-2.50964 38.682676,-4.89067"
       bendpath2="m 63.713161,113.37516 v 23.15307"
       bendpath3="m 36.937831,137.15148 c 9.393289,-2.78419 22.008533,-1.29192 33.504348,-1.28546"
       bendpath4="m 30.660645,113.37516 v 23.15307"
       bendpath1-nodetypes="cc"
       bendpath3-nodetypes="cc" />
    <inkscape:path-effect
       effect="envelope"
       id="path-effect1146"
       is_visible="true"
       lpeversion="1"
       yy="true"
       xx="true"
       bendpath1="m 59.873044,114.55084 c 46.676776,-32.335226 53.042076,0.86592 71.644006,-0.85689"
       bendpath2="m 131.51705,113.69395 -6.94933,36.17782"
       bendpath3="m 59.444516,140.55725 65.123204,9.31452"
       bendpath4="m 59.873044,114.55084 c 1.770815,8.43964 1.921842,16.6857 -0.428528,26.00641"
       bendpath1-nodetypes="cc"
       bendpath3-nodetypes="cc"
       bendpath2-nodetypes="cc"
       bendpath4-nodetypes="cc" />
    <inkscape:path-effect
       effect="envelope"
       id="path-effect381"
       is_visible="true"
       lpeversion="1"
       yy="true"
       xx="false"
       bendpath1="m 121.80738,117.52077 c 23.91905,12.26848 27.97948,5.39845 69.93754,5.19985"
       bendpath2="m 196.91558,121.21633 v 22.42039"
       bendpath3="m 116.14376,143.34657 c 39.63056,-1.08824 61.32066,-3.2452 81.27841,-5.33027"
       bendpath4="m 123.38598,121.21633 c -1.18993,4.56847 -0.33822,14.12123 0,22.42039"
       bendpath1-nodetypes="cc"
       bendpath3-nodetypes="cc"
       bendpath4-nodetypes="cc" />
    <inkscape:path-effect
       effect="envelope"
       id="path-effect379"
       is_visible="true"
       lpeversion="1"
       yy="true"
       xx="false"
       bendpath1="m 29.790187,117.50499 c 17.377331,0.3284 27.506979,-2.50964 38.682676,-4.89067"
       bendpath2="m 63.713161,113.37516 v 23.15307"
       bendpath3="m 36.937831,137.15148 c 9.393289,-2.78419 22.008533,-1.29192 33.504348,-1.28546"
       bendpath4="m 30.660645,113.37516 v 23.15307"
       bendpath1-nodetypes="cc"
       bendpath3-nodetypes="cc" />
    <inkscape:path-effect
       effect="envelope"
       id="path-effect318"
       is_visible="true"
       lpeversion="1"
       yy="true"
       xx="true"
       bendpath1="m 59.873044,114.55084 c 46.676776,-32.335226 53.042076,0.86592 71.644006,-0.85689"
       bendpath2="m 131.51705,113.69395 -6.94933,36.17782"
       bendpath3="m 59.444516,140.55725 65.123204,9.31452"
       bendpath4="m 59.873044,114.55084 c 1.770815,8.43964 1.921842,16.6857 -0.428528,26.00641"
       bendpath1-nodetypes="cc"
       bendpath3-nodetypes="cc"
       bendpath2-nodetypes="cc"
       bendpath4-nodetypes="cc" />
    <rect
       x="59.771362"
       y="97.144264"
       width="77.21096"
       height="52.83857"
       id="rect196" />
    <rect
       x="59.771362"
       y="97.144264"
       width="77.21096"
       height="52.83857"
       id="rect1152" />
    <rect
       x="59.771362"
       y="97.144264"
       width="77.21096"
       height="52.83857"
       id="rect602" />
    <rect
       x="20.267193"
       y="54.030751"
       width="67.745835"
       height="22.814654"
       id="rect604" />
    <rect
       x="59.771362"
       y="97.144264"
       width="77.21096"
       height="52.83857"
       id="rect213" />
    <rect
       x="20.267193"
       y="54.030751"
       width="67.745835"
       height="22.814654"
       id="rect215" />
    <rect
       x="59.771362"
       y="97.144264"
       width="77.21096"
       height="52.83857"
       id="rect190" />
    <rect
       x="20.267193"
       y="54.030751"
       width="67.745835"
       height="22.814654"
       id="rect192" />
    <rect
       x="59.771362"
       y="97.144264"
       width="77.21096"
       height="52.83857"
       id="rect324" />
    <rect
       x="20.267193"
       y="54.030751"
       width="67.745835"
       height="22.814654"
       id="rect326" />
    <rect
       x="59.771362"
       y="97.144264"
       width="77.21096"
       height="52.83857"
       id="rect452" />
    <rect
       x="20.267193"
       y="54.030751"
       width="67.745835"
       height="22.814654"
       id="rect454" />
    <rect
       x="20.267193"
       y="54.03075"
       width="67.745834"
       height="22.814653"
       id="rect454-3" />
    <rect
       x="20.267193"
       y="54.03075"
       width="67.745834"
       height="22.814653"
       id="rect80" />
    <rect
       x="59.771362"
       y="97.144264"
       width="77.21096"
       height="52.83857"
       id="rect452-6" />
    <rect
       x="59.771362"
       y="97.144264"
       width="77.21096"
       height="52.83857"
       id="rect83" />
    <rect
       x="20.267193"
       y="54.03075"
       width="67.745834"
       height="22.814653"
       id="rect454-36" />
    <rect
       x="20.267193"
       y="54.03075"
       width="67.745834"
       height="22.814653"
       id="rect127" />
    <rect
       x="59.771362"
       y="97.144264"
       width="77.21096"
       height="52.83857"
       id="rect452-7" />
    <rect
       x="59.771362"
       y="97.144264"
       width="77.21096"
       height="52.83857"
       id="rect130" />
    <rect
       x="20.267193"
       y="54.03075"
       width="67.745834"
       height="22.814653"
       id="rect454-367" />
    <rect
       x="20.267193"
       y="54.03075"
       width="67.745834"
       height="22.814653"
       id="rect187" />
    <rect
       x="59.771362"
       y="97.144264"
       width="77.21096"
       height="52.83857"
       id="rect452-5" />
    <rect
       x="59.771362"
       y="97.144264"
       width="77.21096"
       height="52.83857"
       id="rect190-3" />
    <rect
       x="20.267193"
       y="54.03075"
       width="67.745834"
       height="22.814653"
       id="rect454-3675" />
    <rect
       x="20.267193"
       y="54.03075"
       width="67.745834"
       height="22.814653"
       id="rect134" />
    <rect
       x="59.771362"
       y="97.144264"
       width="77.21096"
       height="52.83857"
       id="rect452-3" />
    <rect
       x="59.771362"
       y="97.144264"
       width="77.21096"
       height="52.83857"
       id="rect137" />
    <rect
       x="20.267193"
       y="54.03075"
       width="67.745834"
       height="22.814653"
       id="rect454-8" />
    <rect
       x="20.267193"
       y="54.03075"
       width="67.745834"
       height="22.814653"
       id="rect329" />
    <rect
       x="59.771362"
       y="97.144264"
       width="77.21096"
       height="52.83857"
       id="rect452-4" />
    <rect
       x="59.771362"
       y="97.144264"
       width="77.21096"
       height="52.83857"
       id="rect332" />
    <rect
       x="20.267193"
       y="54.03075"
       width="67.745834"
       height="22.814653"
       id="rect454-9" />
    <rect
       x="20.267193"
       y="54.03075"
       width="67.745834"
       height="22.814653"
       id="rect528" />
    <rect
       x="59.771362"
       y="97.144264"
       width="77.21096"
       height="52.83857"
       id="rect452-2" />
    <rect
       x="59.771362"
       y="97.144264"
       width="77.21096"
       height="52.83857"
       id="rect531" />
    <rect
       x="20.267193"
       y="54.03075"
       width="67.745834"
       height="22.814653"
       id="rect454-7" />
    <rect
       x="20.267193"
       y="54.03075"
       width="67.745834"
       height="22.814653"
       id="rect727" />
    <rect
       x="59.771362"
       y="97.144264"
       width="77.21096"
       height="52.83857"
       id="rect452-36" />
    <rect
       x="59.771362"
       y="97.144264"
       width="77.21096"
       height="52.83857"
       id="rect730" />
    <rect
       x="20.267193"
       y="54.03075"
       width="67.745834"
       height="22.814653"
       id="rect454-0" />
    <rect
       x="20.267193"
       y="54.03075"
       width="67.745834"
       height="22.814653"
       id="rect150" />
    <rect
       x="59.771362"
       y="97.144264"
       width="77.21096"
       height="52.83857"
       id="rect452-9" />
    <rect
       x="59.771362"
       y="97.144264"
       width="77.21096"
       height="52.83857"
       id="rect153" />
    <rect
       x="20.267193"
       y="54.03075"
       width="67.745834"
       height="22.814653"
       id="rect454-36753" />
    <rect
       x="20.267193"
       y="54.03075"
       width="67.745834"
       height="22.814653"
       id="rect154" />
    <rect
       x="59.771362"
       y="97.144264"
       width="77.21096"
       height="52.83857"
       id="rect452-56" />
    <rect
       x="59.771362"
       y="97.144264"
       width="77.21096"
       height="52.83857"
       id="rect157" />
    <filter
       inkscape:collect="always"
       style="color-interpolation-filters:sRGB"
       id="filter347"
       x="-0.013550522"
       width="1.027101"
       y="-0.010767882"
       height="1.0215358">
      <feGaussianBlur
         inkscape:collect="always"
         stdDeviation="0.43305525"
         id="feGaussianBlur349" />
    </filter>
  </defs>
  <sodipodi:namedview
     id="base"
     pagecolor="#ffffff"
     bordercolor="#666666"
     borderopacity="1.0"
     inkscape:pageopacity="0.0"
     inkscape:pageshadow="2"
     inkscape:zoom="2.0026667"
     inkscape:cx="202.42825"
     inkscape:cy="208.29888"
     inkscape:document-units="px"
     inkscape:current-layer="g450"
     inkscape:document-rotation="0"
     showgrid="false"
     inkscape:pagecheckerboard="true"
     units="px"
     inkscape:window-width="1920"
     inkscape:window-height="1043"
     inkscape:window-x="0"
     inkscape:window-y="0"
     inkscape:window-maximized="1" />
  <metadata
     id="metadata5">
    <rdf:RDF>
      <cc:Work
         rdf:about="">
        <dc:format>image/svg+xml</dc:format>
        <dc:type
           rdf:resource="http://purl.org/dc/dcmitype/StillImage" />
        <dc:title />
      </cc:Work>
    </rdf:RDF>
  </metadata>
  <g
     inkscape:groupmode="layer"
     id="layer1"
     inkscape:label="shadow"
     style="filter:url(#filter347)">
    <text
       xml:space="preserve"
       id="text368-2"
       style="font-size:10.5833px;line-height:1.25;font-family:'Fira Code';-inkscape-font-specification:'Fira Code';word-spacing:0px;white-space:pre;shape-inside:url(#rect452-56);display:inline;fill:#000000;"
       transform="matrix(0.49908009,-0.07781771,0.07781771,0.49908009,-13.579445,10.258583)" />
    <path
       style="display:inline;fill:#000000;stroke:#ffffff;stroke-width:0.0660577"
       d="m 29.748479,76.198188 c 0.05354,-0.931273 0.104866,-1.221655 0.279112,-1.578964 0.180677,-0.370487 0.297296,-0.93765 0.270766,-1.316826 -0.01212,-0.17167 -0.0071,-0.360295 0.01087,-0.419166 0.04147,-0.135756 0.31984,-0.157058 1.485137,-0.113622 0.487318,0.01815 1.154147,0.03197 1.481846,0.03072 l 0.595813,-0.0023 -0.42249,-0.165633 c -0.7479,-0.293175 -1.528067,-0.869431 -2.04573,-2.039086 -1.190762,-2.690516 -1.077205,-6.130516 -0.730183,-7.740049 0.280419,-1.300621 0.702897,-2.16854 1.238048,-2.827736 0.325504,-0.400954 0.320947,-0.397598 -1.462905,1.076693 -0.837941,0.692532 -1.549768,1.235293 -1.581837,1.206136 -0.09585,-0.08716 -3.201375,-4.842229 -3.236337,-4.95538 -0.0243,-0.07866 0.918919,-0.731086 3.833705,-2.651738 2.224151,-1.465564 3.892041,-2.524354 3.927388,-2.493138 0.206758,0.182586 2.724845,3.934939 2.734886,4.075416 0.0099,0.137784 -0.09233,0.251238 -0.568136,0.63087 -0.858018,0.684586 -2.512697,2.038797 -2.583598,2.114456 -0.03388,0.03616 0.08185,-0.01294 0.257248,-0.109031 0.268634,-0.14726 0.427867,-0.182421 1.010782,-0.223206 0.629327,-0.04405 0.728888,-0.03362 1.100701,0.115529 0.609445,0.244414 1.376369,0.948192 1.817137,1.667518 0.814464,1.3292 1.25254,2.90905 1.39958,5.047382 0.232438,3.378697 -0.782199,5.934858 -2.736157,6.893827 l -0.367725,0.180471 0.294693,0.02884 c 0.162077,0.01586 0.416327,0.0624 0.564997,0.103443 0.148673,0.04106 0.431638,0.07704 0.628813,0.08001 0.71534,0.01076 0.769196,0.147474 0.860323,2.183959 0.03912,0.873884 0.0746,1.879175 0.0789,2.233976 l 0.0078,0.645094 c -0.498357,0.185031 -3.122261,0.477751 -4.350806,0.602553 -1.62725,0.166908 -3.276155,0.343715 -3.664235,0.392899 -1.02998,-0.239886 -0.175473,-1.90373 -0.128406,-2.673917 z m 5.910707,-5.137686 c 0.936165,-0.510444 1.479074,-1.710711 1.592622,-3.520987 0.05558,-0.886264 -0.197292,-3.363883 -0.427561,-4.189159 -0.473401,-1.69661 -1.103444,-2.648552 -1.948539,-2.944077 -0.683403,-0.238981 -1.537413,0.06937 -2.150552,0.776485 -0.555281,0.640387 -0.853631,1.473021 -1.00065,2.792614 -0.101889,0.9145 0.06018,3.275287 0.289191,4.214051 0.321454,1.317167 0.833823,2.328711 1.421601,2.806591 0.523819,0.425882 1.508627,0.454438 2.223807,0.06449 z"
       id="path370-9"
       sodipodi:nodetypes="csccscccsssssssscsscccscscssssccccccssssscscc" />
    <path
       style="display:inline;fill:#000000;stroke:#ffffff;stroke-width:0.0660577"
       d="m 43.746647,72.31865 -0.553328,0.01627 0.02051,-0.330248 c 0.05969,-0.96109 0.06108,-3.591251 0.0028,-5.416791 -0.07575,-2.374107 -0.368551,-5.401326 -0.761209,-7.869991 -0.126056,-0.792432 -0.234747,-1.507444 -0.241551,-1.588916 -0.01,-0.119684 -0.04969,-0.145515 -0.206709,-0.13453 -0.43051,0.03009 -2.572452,0.691301 -3.191683,0.985212 -0.08636,0.04098 -0.127014,-0.0053 -0.201074,-0.229091 -0.05106,-0.154259 -0.205554,-0.597064 -0.343333,-0.984009 -0.202591,-0.568969 -0.23443,-0.715254 -0.166455,-0.764785 0.163547,-0.119176 1.570392,-0.709413 2.176573,-0.913172 1.065944,-0.358304 1.784113,-0.502627 2.905897,-0.583963 1.339056,-0.09709 2.333853,-0.01189 3.619458,0.309984 0.406726,0.101831 0.425163,0.115143 0.393507,0.284075 -0.01827,0.09749 -0.07586,0.547481 -0.127968,0.999994 -0.05211,0.452515 -0.104217,0.833169 -0.115784,0.845896 -0.01158,0.01271 -0.367022,-0.02408 -0.789899,-0.08179 -0.720894,-0.09838 -2.559993,-0.171996 -2.614024,-0.104636 -0.0135,0.01679 0.0769,0.857819 0.200796,1.868925 0.363904,2.969284 0.60224,6.546642 0.67627,10.150449 0.06997,3.405174 0.06799,3.544161 -0.04919,3.532692 -0.04417,-0.0043 -0.32932,-5.03e-4 -0.633652,0.0085 z"
       id="path372-1" />
    <path
       style="display:inline;fill:#000000;stroke:#ffffff;stroke-width:0.0665828"
       d="m 50.837999,72.547296 -0.479342,0.01083 -0.129785,-1.88838 c -0.1915,-2.784467 -0.330222,-7.717386 -0.321574,-11.427962 0.0039,-1.693299 0.05876,-3.241834 0.117173,-3.310113 0.01387,-0.0162 0.466582,0.13894 1.006009,0.344802 0.539428,0.205861 1.483586,0.535909 2.098129,0.733434 2.776495,0.892425 3.813192,1.581285 4.376569,2.908128 0.210024,0.494639 0.336348,1.472879 0.289046,2.238337 -0.146161,2.36529 -0.996773,3.747886 -2.656333,4.317643 -0.546892,0.187759 -1.653596,0.253675 -2.763408,0.164586 -0.509144,-0.04087 -0.936749,-0.06141 -0.950233,-0.04566 -0.01348,0.01575 -0.03383,0.555009 -0.04522,1.198331 -0.0231,1.304628 0.102498,3.694184 0.227625,4.330826 l 0.0815,0.414684 -0.185407,-2.66e-4 c -0.101974,-1.31e-4 -0.401108,0.0048 -0.664746,0.01063 z m 3.499951,-7.467955 c 1.201353,-0.2867 1.783842,-1.175947 1.864437,-2.846331 0.08123,-1.683589 -0.562426,-2.804294 -1.946552,-3.389255 -0.506888,-0.214219 -2.895717,-0.856353 -2.949948,-0.792965 -0.105925,0.123806 -0.06929,2.919682 0.0715,5.456678 l 0.08167,1.471479 0.700182,0.07083 c 0.648471,0.06559 1.4289,0.125466 1.664274,0.127683 0.05468,5.12e-4 0.28616,-0.04365 0.51444,-0.0981 z"
       id="path374-2" />
    <path
       style="display:inline;fill:#000000;stroke:#ffffff;stroke-width:0.0660577"
       d="m 29.528196,85.282738 c -0.188993,-0.102392 -0.247576,-0.396085 -0.23486,-1.177386 0.0069,-0.426098 0.01398,-1.110648 0.01566,-1.521223 0.0036,-0.873997 0.06277,-0.989722 0.644304,-1.25973 0.324342,-0.150596 0.526246,-0.181151 2.135162,-0.323135 1.415929,-0.124957 1.931887,-0.145934 2.539553,-0.103329 0.419433,0.02942 1.193784,0.02348 1.720779,-0.01319 0.526995,-0.03669 1.071818,-0.04352 1.210723,-0.01524 0.431067,0.08785 0.529522,0.341154 0.637545,1.640329 0.05327,0.640871 0.04461,0.763215 -0.07493,1.063239 -0.262437,0.658389 -0.6281,0.780842 -3.129695,1.048049 -1.049413,0.112092 -2.6008,0.310919 -3.447521,0.441832 -1.700501,0.26292 -1.897431,0.284378 -2.016726,0.219749 z"
       id="path376-7" />
    <path
       style="display:inline;fill:#000000;stroke:#ffffff;stroke-width:0.0660577"
       d="m 30.550978,92.40068 c -0.142904,-0.14957 -0.528696,-2.24377 -0.606123,-3.29018 -0.05985,-0.80884 -0.05572,-1.022344 0.02242,-1.16218 l 0.09574,-0.171309 3.596185,-0.535559 c 2.732535,-0.406939 3.646468,-0.564749 3.805543,-0.657104 0.152691,-0.08865 0.257029,-0.108228 0.38549,-0.07236 0.287014,0.08017 0.437039,0.322739 0.586996,0.949134 0.299256,1.250034 0.317817,1.35224 0.26641,1.466878 -0.03328,0.0742 -0.739309,0.4079 -1.968752,0.93053 -1.945696,0.82711 -5.818347,2.48811 -6.004571,2.5754 -0.05606,0.0263 -0.136759,0.0114 -0.179347,-0.0333 z"
       id="path378-0" />
    <path
       style="display:inline;fill:#000000;stroke:#ffffff;stroke-width:0.0660577"
       d="m 42.901527,101.1521 c -1.825034,-0.14891 -3.790898,-0.53316 -4.736465,-0.9258 -0.241986,-0.10047 -0.65832,-0.32207 -0.925184,-0.49241 -0.266863,-0.17035 -1.171216,-0.71562 -2.009672,-1.21172 -2.308649,-1.36597 -2.358268,-1.40637 -2.944059,-2.39721 -0.467982,-0.79157 -0.558675,-1.02435 -0.463296,-1.18914 0.08119,-0.14026 0.61114,-0.45538 1.170028,-0.69572 0.5066,-0.21785 2.724104,-1.34321 5.002179,-2.53855 0.98668,-0.51772 1.340676,-0.59605 1.957101,-0.43302 0.28265,0.0748 0.380822,0.15492 0.818954,0.6688 0.273793,0.32114 0.589552,0.62348 0.701684,0.67187 0.112134,0.0484 0.593864,0.14981 1.070515,0.22538 1.398305,0.2217 3.019421,0.0577 4.126624,-0.41752 0.766536,-0.329 1.032169,-0.5296 1.501234,-1.13376 0.314303,-0.40481 0.468286,-0.54686 0.667448,-0.61572 0.383755,-0.13269 0.834004,-0.0374 1.221894,0.2587 0.226961,0.17323 1.113274,0.55197 3.193737,1.36476 3.39576,1.32663 3.487565,1.36679 3.600516,1.57484 0.09997,0.18411 0.14553,0.0853 -0.652342,1.41377 -0.450959,0.75084 -0.632041,0.98103 -1.21621,1.54605 -1.547377,1.49665 -2.881659,2.59839 -3.664899,3.02615 -0.441143,0.24095 -0.844028,0.34954 -2.543401,0.68563 -2.766215,0.54709 -4.491898,0.72758 -5.876386,0.61462 z"
       id="path380-9" />
    <path
       style="display:inline;fill:#000000;stroke:#ffffff;stroke-width:0.0660577"
       d="m 57.427716,78.310406 c -0.05529,-0.0095 -1.696418,-0.04088 -3.646943,-0.06981 -2.403295,-0.03564 -3.618109,-0.07898 -3.768852,-0.134443 -0.122345,-0.04502 -0.256758,-0.156044 -0.298698,-0.246728 -0.0445,-0.09625 -0.145191,-1.150384 -0.241933,-2.532866 -0.162117,-2.316951 -0.162891,-2.371181 -0.03713,-2.515907 0.09591,-0.110343 0.173759,-0.139583 0.306486,-0.115104 0.15261,0.02814 3.421892,-0.08516 7.038968,-0.243897 l 1.049889,-0.04612 0.173719,0.175532 0.173723,0.17553 0.116162,2.249154 c 0.141223,2.734199 0.138221,2.911041 -0.0527,3.130701 -0.138756,0.15964 -0.475368,0.231673 -0.812704,0.17392 z"
       id="path382-3" />
    <path
       style="display:inline;fill:#000000;stroke:#ffffff;stroke-width:0.0660577"
       d="m 56.940637,84.598822 c -0.237285,-0.0079 -1.320214,-0.117258 -2.40651,-0.243076 -1.086297,-0.125817 -2.331709,-0.251131 -2.767583,-0.278474 -1.766061,-0.11079 -1.768117,-0.111578 -1.961497,-0.751444 -0.163593,-0.541299 -0.297363,-2.190406 -0.209404,-2.581483 0.108191,-0.481017 0.428851,-0.618029 0.997003,-0.426007 0.329832,0.111475 5.715577,0.411248 6.803398,0.378682 1.414197,-0.04238 1.430144,-0.02824 1.411601,1.246254 -0.02325,1.598247 -0.120951,2.06249 -0.502587,2.388143 -0.201274,0.171748 -0.787101,0.286562 -1.364425,0.267405 z"
       id="path384-6" />
    <path
       style="display:inline;fill:#000000;stroke:#ffffff;stroke-width:0.0660577"
       d="M 56.010143,91.17479 C 55.314757,90.866 54.246285,90.37314 53.63576,90.07956 c -1.360966,-0.65445 -2.031421,-0.89594 -2.636626,-0.94967 -0.56147,-0.0499 -0.958062,-0.22283 -1.146691,-0.50014 -0.127394,-0.187287 -0.141801,-0.289633 -0.155073,-1.101763 -0.01034,-0.633669 0.01086,-0.92462 0.07259,-0.995636 0.04797,-0.05518 0.230109,-0.153885 0.404756,-0.219331 0.314068,-0.117687 0.359213,-0.113708 4.128231,0.364234 2.290501,0.290451 3.880412,0.522236 3.985467,0.581023 0.09612,0.05378 0.230753,0.196759 0.29917,0.317696 0.118969,0.210299 0.118845,0.255649 -0.0029,1.039913 -0.208152,1.341304 -0.394968,2.002094 -0.729639,2.580834 -0.216664,0.37467 -0.340332,0.52338 -0.440859,0.53013 -0.07686,0.005 -0.70868,-0.24327 -1.404066,-0.55206 z"
       id="path386-0" />
    <path
       style="display:inline;fill:#000000;stroke:#ffffff;stroke-width:0.0660577"
       d="m 42.23259,90.71779 c -0.173187,-0.0857 -0.745778,-0.63616 -1.10719,-1.06447 -0.365388,-0.43302 -0.736507,-1.224954 -0.76502,-1.632487 -0.01892,-0.270501 0.0092,-0.367479 0.166569,-0.574191 0.148511,-0.195081 0.209868,-0.233973 0.284524,-0.180351 0.05235,0.03759 0.137712,0.04854 0.189695,0.0243 0.05385,-0.02508 0.36439,0.107307 0.721626,0.30768 0.742103,0.416242 0.764326,0.450982 1.001471,1.565539 0.273391,1.28491 0.09624,1.84478 -0.491675,1.55397 z"
       id="path388-6" />
    <path
       style="display:inline;fill:#000000;stroke:#ffffff;stroke-width:0.0660577"
       d="m 45.700759,90.67613 c -0.05933,-0.0926 -0.115362,-0.46683 -0.15976,-1.06703 -0.0572,-0.772575 -0.05102,-0.971512 0.03749,-1.211121 0.05824,-0.157687 0.133205,-0.288613 0.166599,-0.29095 0.09776,-0.0069 1.10076,-1.090163 1.094336,-1.181974 -0.0069,-0.09781 0.237136,-0.189841 0.461181,-0.173964 0.212831,0.01507 0.262745,0.357079 0.128746,0.882135 -0.05562,0.21788 -0.119159,0.665594 -0.141231,0.994922 -0.02208,0.329332 -0.06881,0.726592 -0.103866,0.882812 -0.083,0.36988 -0.389905,0.81266 -0.744317,1.0738 -0.347353,0.25595 -0.61271,0.28875 -0.739174,0.0914 z"
       id="path390-2" />
    <path
       style="display:inline;fill:#000000;stroke:#ffffff;stroke-width:0.0660577"
       d="m 45.286311,84.612955 c -0.166672,-0.234766 -0.207706,-0.584119 -0.142737,-1.21536 0.05047,-0.490356 0.0316,-0.471103 1.064477,-1.086303 0.647235,-0.385504 1.043933,-0.492023 1.204907,-0.32353 0.04414,0.04619 0.124242,0.438273 0.178028,0.871287 l 0.09778,0.787301 -0.404673,0.333749 c -0.426909,0.352084 -1.330682,0.801392 -1.658059,0.824298 -0.148338,0.01043 -0.228518,-0.0348 -0.339727,-0.191442 z"
       id="path392-6" />
    <path
       style="display:inline;fill:#000000;stroke:#ffffff;stroke-width:0.0660577"
       d="m 42.090521,84.917303 c -0.328968,-0.04163 -0.573954,-0.131334 -1.24859,-0.457198 -0.698984,-0.337624 -0.94294,-0.666279 -0.9893,-1.332769 -0.05923,-0.849857 0.218702,-1.377686 0.744506,-1.414477 0.298341,-0.02084 0.396812,0.0396 1.280379,0.786425 0.651755,0.550879 0.688569,0.620412 0.824975,1.558122 0.08067,0.554631 0.07753,0.609472 -0.04284,0.747964 -0.139813,0.160849 -0.156542,0.164139 -0.569131,0.111936 z"
       id="path394-1" />
    <path
       style="display:inline;fill:#000000;stroke:#ffffff;stroke-width:0.0660577"
       d="m 41.671703,79.6751 c -0.467563,-0.108533 -1.391038,-0.681747 -1.637763,-1.016589 -0.324727,-0.440697 -0.495719,-1.074489 -0.506381,-1.876906 -0.0098,-0.736577 0.02542,-0.874258 0.313061,-1.224128 0.128902,-0.156793 0.227072,-0.219158 0.312442,-0.198493 0.06846,0.01656 0.15917,-0.003 0.201566,-0.04352 0.05685,-0.05431 0.33129,0.114558 1.045358,0.643225 0.532552,0.394276 0.998665,0.763246 1.035812,0.819936 0.07995,0.122002 0.171862,1.473947 0.139998,2.058216 -0.0123,0.225176 0.0049,0.469844 0.03823,0.543708 0.108358,0.239941 0.02508,0.33569 -0.307617,0.353959 -0.168464,0.0091 -0.454068,-0.01748 -0.634697,-0.05942 z"
       id="path396-8" />
    <path
       style="display:inline;fill:#000000;stroke:#ffffff;stroke-width:0.0660577"
       d="m 45.291604,79.447483 c -0.23806,-0.179638 -0.340141,-0.640346 -0.405792,-1.83141 l -0.05034,-0.912655 0.242811,-0.208932 c 0.133546,-0.114912 0.348115,-0.234184 0.476824,-0.265045 0.422713,-0.10136 0.632131,-0.206595 0.780185,-0.392058 0.23861,-0.298894 0.622786,-0.595541 0.786061,-0.606965 0.267912,-0.01877 0.318836,0.171379 0.40593,1.515583 0.0706,1.089247 0.0959,1.261572 0.194714,1.323712 0.06246,0.03929 0.09983,0.116435 0.08303,0.171422 -0.01681,0.05497 -0.4022,0.369345 -0.856439,0.698581 -0.743196,0.538672 -0.858453,0.600889 -1.151103,0.621363 -0.242864,0.01695 -0.370971,-0.01176 -0.505907,-0.113595 z"
       id="path398-7" />
    <path
       style="display:inline;fill:#000000;stroke:#ffffff;stroke-width:0.0934199"
       d="m 56.535631,58.057245 c -0.260284,-0.08494 -1.931183,-0.682136 -3.713111,-1.327112 -1.781929,-0.644975 -3.322952,-1.166867 -3.424499,-1.159762 -0.101548,0.0071 -0.285414,-0.05763 -0.408595,-0.143886 -0.221246,-0.154897 -0.223304,-0.167565 -0.169215,-1.041702 0.03012,-0.486696 0.119297,-1.331904 0.198185,-1.878241 0.09056,-0.627174 0.115269,-1.172604 0.06703,-1.479649 l -0.07639,-0.486308 0.280491,-0.01963 c 0.457499,-0.03198 3.446191,0.121573 4.710073,0.242041 0.644599,0.06144 1.390507,0.181896 1.657575,0.267675 0.267068,0.08578 0.867024,0.187024 1.333238,0.224984 0.578311,0.0471 0.888214,0.116961 0.97528,0.219897 0.07132,0.08432 0.146604,0.420497 0.170658,0.762096 0.0629,0.894993 0.01943,3.125131 -0.06346,3.247058 -0.06781,0.09974 -0.107337,0.695315 -0.109943,1.656984 -0.0026,0.971911 -0.424785,1.242699 -1.427312,0.91555 z"
       id="path400-9" />
    <path
       style="display:inline;fill:#000000;stroke:#ffffff;stroke-width:0.0934199"
       d="m 44.746401,53.103175 c -0.903735,-0.494107 -1.897369,-1.038284 -2.20807,-1.209277 -0.310704,-0.170997 -0.607246,-0.400114 -0.658979,-0.509153 -0.05175,-0.109039 -0.220138,-0.944262 -0.374227,-1.856051 l -0.280164,-1.657801 0.194134,-0.181036 c 0.110213,-0.102782 0.264415,-0.160722 0.356727,-0.134037 0.318351,0.09203 1.928468,0.903894 3.280507,1.654138 0.755213,0.419063 1.41858,0.758751 1.474155,0.754861 0.238255,-0.01661 0.521756,0.457761 0.554675,0.928228 0.0501,0.715353 -0.007,2.611305 -0.08594,2.855139 -0.134799,0.416459 -0.505467,0.310331 -2.252818,-0.645011 z"
       id="path402-2" />
    <path
       style="display:inline;fill:#000000;stroke:#ffffff;stroke-width:0.0934199"
       d="m 36.590784,53.152696 c -0.584127,-0.802976 -1.068138,-1.547028 -1.075583,-1.653451 -0.0093,-0.131985 0.190092,-0.367847 0.627033,-0.741963 0.352318,-0.301661 1.065716,-0.937501 1.585333,-1.412981 0.755651,-0.691464 0.992314,-0.85882 1.182337,-0.836095 0.186438,0.0223 0.241513,0.08459 0.25584,0.289358 0.01005,0.143522 0.05613,0.272345 0.102405,0.286276 0.119111,0.03585 0.627893,2.121028 0.579852,2.376441 -0.02312,0.122923 0.01171,0.238507 0.08306,0.276022 0.0856,0.04496 -0.22712,0.48989 -1.031114,1.467045 -0.634683,0.771377 -1.17493,1.404032 -1.200552,1.405902 -0.02561,0.0019 -0.524507,-0.653579 -1.10863,-1.456554 z"
       id="path404-0" />
    <path
       style="display:inline;fill:#000000;stroke:#ffffff;stroke-width:0.0934199"
       d="M 23.471546,53.76342 C 23.125524,53.177329 21.131723,48.9581 21.036194,48.609789 l -0.07604,-0.277238 4.199726,-1.380817 c 3.143807,-1.033646 4.243112,-1.360375 4.372288,-1.299506 0.209066,0.09851 2.415707,3.890335 2.363466,4.061303 -0.02645,0.08655 -6.815903,3.819739 -8.059642,4.431619 -0.0612,0.03011 -0.218685,-0.134837 -0.364449,-0.38173 z"
       id="path406-2" />
    <path
       style="display:inline;fill:#000000;stroke:#ffffff;stroke-width:0.0934199"
       d="m 33.854452,48.951129 c -0.05973,-0.06254 -0.355682,-0.675737 -0.657647,-1.362674 -0.794743,-1.807966 -0.793472,-1.818553 0.386697,-3.219583 2.894134,-3.435762 3.347851,-3.940066 3.55806,-3.954772 0.340205,-0.02382 0.53827,0.429103 0.832459,1.903536 0.306392,1.535595 0.311118,1.562679 0.312558,1.791281 10e-4,0.146927 -2.329696,3.078927 -3.542386,4.456427 -0.420822,0.478013 -0.690087,0.594765 -0.889741,0.385785 z"
       id="path408-3" />
    <path
       style="display:inline;fill:#000000;stroke:#ffffff;stroke-width:0.0934199"
       d="m 45.828042,46.159934 c -0.503276,-0.107339 -5.047149,-2.153642 -5.355233,-2.411693 -0.252525,-0.211514 -0.289122,-0.315754 -0.437453,-1.245935 -0.410665,-2.575289 -0.398066,-2.406764 -0.19724,-2.637812 l 0.183704,-0.211343 0.885133,0.252311 c 3.150246,0.897983 5.186981,1.611093 5.763584,2.01797 0.212983,0.150291 0.301872,0.314838 0.402811,0.745672 0.17242,0.735914 0.332795,3.078679 0.226899,3.314793 -0.06872,0.153224 -0.18017,0.192219 -0.617023,0.215865 -0.293236,0.01588 -0.678079,-0.002 -0.855202,-0.03983 z"
       id="path410-7" />
    <path
       style="display:inline;fill:#000000;stroke:#ffffff;stroke-width:0.0934199"
       d="m 55.48348,47.117988 c -0.48005,-0.05167 -1.552757,-0.03369 -2.94646,0.04939 -2.769557,0.165121 -2.887066,0.130857 -3.13854,-0.915043 -0.182031,-0.757093 -0.418976,-2.804257 -0.369096,-3.188949 0.02549,-0.196653 0.112931,-0.347902 0.233295,-0.403569 0.105883,-0.04897 1.148927,-0.264895 2.317872,-0.479835 1.860034,-0.342018 2.547082,-0.426159 4.270019,-0.522964 0.205218,-0.01156 0.556989,-0.110054 0.781713,-0.218955 0.478609,-0.23192 1.015569,-0.210051 1.319032,0.05372 0.148148,0.128775 0.202924,0.298018 0.232289,0.717708 0.0627,0.896457 -0.0444,3.122595 -0.172416,3.58304 -0.06536,0.235064 -0.09453,0.592032 -0.06483,0.793266 0.04756,0.322167 0.02684,0.375643 -0.174407,0.447694 -0.367037,0.131486 -1.472784,0.172312 -2.288467,0.08449 z"
       id="path412-5" />
    <path
       style="display:inline;fill:#000000;stroke:#ffffff;stroke-width:0.0934199"
       d="m 49.182208,39.779937 c -0.161027,-0.0098 -0.302252,-0.09271 -0.362674,-0.213051 -0.143663,-0.286095 -0.659713,-3.677746 -0.57442,-3.775281 0.117105,-0.133919 1.673054,-0.839365 2.448755,-1.110241 0.394824,-0.137871 0.795888,-0.298999 0.891252,-0.358062 0.311019,-0.192624 1.181692,-0.427292 1.752657,-0.472382 0.439067,-0.03464 0.662452,-0.111101 1.042546,-0.35668 0.702888,-0.454134 1.054955,-0.559758 1.436252,-0.430888 0.522192,0.176489 0.638526,0.433171 1.103312,2.434368 0.476976,2.053669 0.483842,2.426462 0.05135,2.791213 -0.305726,0.257866 -5.496239,1.25055 -5.926671,1.133473 -0.221086,-0.06014 -0.359619,-0.03833 -0.617638,0.0972 -0.358795,0.188481 -0.824151,0.285806 -1.244769,0.260326 z"
       id="path414-9" />
    <path
       style="display:inline;fill:#000000;stroke:#ffffff;stroke-width:0.0934199"
       d="m 45.28833,38.742817 c -0.286214,-0.122114 -1.886367,-0.863522 -3.555903,-1.647577 -3.11322,-1.462042 -3.304664,-1.583474 -3.349666,-2.124693 -0.0097,-0.117764 -0.183685,-0.813561 -0.38643,-1.546222 l -0.368622,-1.332103 0.182606,-0.176663 c 0.22357,-0.216289 0.4705,-0.243044 0.636778,-0.069 0.06867,0.07189 0.153716,0.109963 0.188974,0.0846 0.03526,-0.02536 1.462626,0.423736 3.171931,0.997974 1.709305,0.574239 3.160238,1.019635 3.224297,0.989772 0.06407,-0.02986 0.195789,0.01464 0.292735,0.09891 0.135707,0.117955 0.269188,0.609086 0.580149,2.134602 0.486187,2.385134 0.486542,2.389032 0.23955,2.61936 -0.250545,0.233649 -0.240044,0.234004 -0.856405,-0.02898 z"
       id="path416-2" />
    <path
       style="display:inline;fill:#000000;stroke:#ffffff;stroke-width:0.0934199"
       d="m 30.988559,42.642166 c -0.06527,-0.03533 -0.364269,-0.798529 -0.664445,-1.695987 l -0.545773,-1.631747 0.286778,-0.355529 c 1.748203,-2.167269 5.147864,-6.089016 5.286845,-6.098741 0.260223,-0.01818 0.352395,0.235395 0.78004,2.146155 0.471937,2.108654 0.477693,2.072639 -0.497062,3.108969 -0.371985,0.395481 -1.303706,1.395081 -2.070487,2.221327 -2.342596,2.524273 -2.278255,2.466683 -2.575896,2.305553 z"
       id="path418-2" />
    <path
       style="display:inline;fill:#000000;stroke:#ffffff;stroke-width:0.0934199"
       d="m 19.582742,45.26995 c -0.08473,-0.209453 -1.252222,-6.070082 -1.216613,-6.107201 0.02994,-0.0312 8.105843,-1.005956 8.545895,-1.031462 0.119123,-0.007 0.17522,0.13347 0.264622,0.662247 0.193378,1.143745 0.610491,2.660536 0.891374,3.241395 0.324677,0.671426 0.342826,0.826783 0.113427,0.971007 -0.294096,0.184897 -3.688929,1.365652 -4.691669,1.631809 -0.516588,0.137116 -1.544024,0.339033 -2.283199,0.4487 -0.739168,0.109677 -1.396699,0.221086 -1.461176,0.247601 -0.06447,0.02652 -0.137675,-0.0023 -0.162659,-0.06409 z"
       id="path420-8" />
    <path
       style="display:inline;fill:#000000;stroke:#ffffff;stroke-width:0.0934199"
       d="m 20.929808,35.777043 c -0.389353,-0.04365 -1.174103,-0.04928 -1.743885,-0.01251 -0.984992,0.06361 -1.051375,0.05551 -1.348839,-0.162942 l -0.31286,-0.22981 -0.08527,-1.181413 c -0.04676,-0.649787 -0.07254,-1.32225 -0.05717,-1.494371 0.188666,-2.105212 0.202667,-2.190429 0.412266,-2.509127 0.204317,-0.31067 0.245749,-0.329581 0.808159,-0.368932 0.32604,-0.02279 0.755207,0.0088 0.953702,0.07035 0.548976,0.170113 3.683851,0.440645 5.160214,0.445314 0.721211,0.0023 1.339543,0.0317 1.374068,0.06538 0.03453,0.03368 0.154081,1.017488 0.265652,2.186246 0.201401,2.109536 0.201455,2.126633 0.0093,2.347756 -0.452053,0.520071 -3.752963,1.03266 -5.435374,0.844046 z"
       id="path422-9" />
    <path
       style="display:inline;fill:#000000;stroke:#ffffff;stroke-width:0.0934199"
       d="m 29.032722,34.262205 c -0.0672,-0.497487 -0.191865,-1.5107 -0.277022,-2.251583 -0.08516,-0.740889 -0.18937,-1.386792 -0.231602,-1.435342 -0.04352,-0.05002 0.973999,-1.372627 2.348078,-3.052151 1.333674,-1.630128 2.443246,-2.919336 2.465721,-2.864905 0.02249,0.05443 0.09948,0.09486 0.171111,0.08984 0.151406,-0.01058 0.138225,-0.04977 0.641752,1.907019 0.212772,0.82689 0.402543,1.727524 0.421705,2.001405 l 0.03479,0.497976 -1.950786,2.319749 c -2.465234,2.931496 -3.13172,3.666625 -3.337286,3.68101 -0.141722,0.0099 -0.181125,-0.112902 -0.286514,-0.893025 z"
       id="path424-7" />
    <path
       style="display:inline;fill:#000000;stroke:#ffffff;stroke-width:0.0934199"
       d="m 42.553205,30.289992 c -1.68317,-0.545457 -5.494854,-1.871822 -5.626068,-1.95772 -0.06013,-0.03935 -0.191261,-0.518457 -0.291401,-1.064657 -0.100154,-0.546196 -0.296469,-1.463361 -0.43629,-2.038145 -0.139819,-0.574783 -0.256861,-1.082829 -0.26009,-1.128991 -0.01746,-0.249361 0.793184,-0.08119 2.58277,0.535786 1.632069,0.562678 2.01687,0.66211 2.48583,0.642335 l 0.554847,-0.02345 0.440273,0.50194 c 0.242153,0.276066 0.689746,0.908715 0.994655,1.405885 0.504654,0.822867 0.562988,0.971023 0.650389,1.651845 0.08321,0.648179 0.127088,0.769001 0.329017,0.906164 0.365625,0.248351 0.346853,0.920366 -0.0264,0.944302 -0.109876,0.0072 -0.738786,-0.161858 -1.397553,-0.375343 z"
       id="path426-3" />
    <path
       style="display:inline;fill:#000000;stroke:#ffffff;stroke-width:0.0934199"
       d="m 47.484207,32.924359 c -0.192513,-0.122121 -0.462187,-0.998273 -0.698368,-2.268929 -0.08978,-0.483028 -0.263684,-1.073159 -0.386453,-1.311397 -0.175836,-0.341225 -0.205362,-0.480922 -0.139113,-0.658184 0.04627,-0.123759 0.495403,-0.541422 0.998105,-0.928145 1.145443,-0.881161 2.454271,-1.520141 3.421924,-1.670593 0.6417,-0.09977 0.696698,-0.126258 0.82206,-0.396037 0.100473,-0.216212 0.259055,-0.338032 0.628905,-0.483113 0.590028,-0.231451 1.373488,-0.312629 1.598484,-0.165628 0.173566,0.113401 0.884343,1.967638 1.346087,3.511587 0.410182,1.371549 0.313146,1.532015 -1.232644,2.038444 -0.495042,0.162184 -1.433794,0.496717 -2.086118,0.74341 -0.652326,0.246693 -1.434664,0.508994 -1.738531,0.58289 -0.303871,0.07389 -0.710699,0.174043 -0.904066,0.222545 -0.238407,0.0598 -0.3944,0.169795 -0.484604,0.341709 -0.196949,0.375345 -0.365123,0.503881 -0.688916,0.526536 -0.159804,0.01122 -0.365342,-0.02712 -0.45675,-0.08511 z"
       id="path428-6" />
    <path
       style="display:inline;fill:#000000;stroke:#ffffff;stroke-width:0.0934199"
       d="m 44.879597,25.556581 c -0.08885,-0.09015 -0.393018,-0.627253 -0.675975,-1.193541 -0.637511,-1.27586 -1.117736,-2.082805 -1.330409,-2.23556 -0.209148,-0.150219 -0.462961,-0.567288 -0.476299,-0.782662 -0.0065,-0.1053 0.16435,-0.280567 0.458731,-0.470529 0.658465,-0.424901 5.148338,-3.773753 5.366905,-4.002999 0.262706,-0.275544 0.625897,-0.267802 0.889767,0.01897 0.245659,0.266976 2.194282,3.600189 2.344077,4.009656 0.171291,0.468224 0.01666,0.68098 -0.879946,1.210903 -0.459264,0.27143 -1.480315,0.907651 -2.269001,1.413824 -0.788687,0.506172 -1.557451,0.958707 -1.708358,1.005632 -0.150914,0.04692 -0.496769,0.329277 -0.768573,0.627448 -0.532223,0.583861 -0.699521,0.654035 -0.950919,0.398862 z"
       id="path430-1" />
    <path
       style="display:inline;fill:#000000;stroke:#ffffff;stroke-width:0.0934199"
       d="m 39.263239,22.083913 c -1.722696,-0.98864 -2.62736,-1.416661 -3.341756,-1.581072 -0.424046,-0.09759 -0.818681,-0.174099 -0.876966,-0.17002 -0.05827,0.0042 -0.142264,-0.169148 -0.186621,-0.384948 -0.180214,-0.87672 -0.383913,-2.233959 -0.346089,-2.30596 0.02219,-0.04227 0.179885,-0.113248 0.35041,-0.157755 0.268331,-0.07004 0.408412,-0.02404 1.04112,0.341316 1.645816,0.95055 2.705386,1.946928 3.781987,3.55643 0.361101,0.539844 0.420612,0.683257 0.333722,0.804231 -0.145429,0.202476 -0.249368,0.188416 -0.755807,-0.102222 z"
       id="path432-2" />
    <path
       style="display:inline;fill:#000000;stroke:#ffffff;stroke-width:0.0934199"
       d="m 28.937974,24.997666 c -0.173355,-0.598711 0.323192,-3.118267 0.872564,-4.427538 0.439576,-1.047602 1.436598,-2.069754 2.004258,-2.05477 0.29042,0.0077 0.33481,0.05389 0.658973,0.686259 0.616294,1.202234 0.530654,1.594216 -0.570548,2.611511 -0.657037,0.606968 -0.861092,0.87811 -1.46474,1.946273 -0.385747,0.682583 -0.781424,1.291396 -0.879284,1.352919 -0.318135,0.200009 -0.542082,0.158677 -0.621223,-0.114654 z"
       id="path434-9" />
    <path
       style="display:inline;fill:#000000;stroke:#ffffff;stroke-width:0.0934199"
       d="m 24.614261,26.915093 c -0.547965,-0.07617 -1.64861,-0.147123 -2.445882,-0.157659 -0.858502,-0.01134 -1.586732,-0.06914 -1.785927,-0.141731 -0.209748,-0.07644 -0.741048,-0.113216 -1.411561,-0.0977 l -1.075211,0.02492 -0.06682,-0.510389 c -0.08136,-0.621272 0.362132,-4.971584 0.528533,-5.184589 0.08114,-0.103871 0.287194,-0.152362 0.721614,-0.169848 0.481229,-0.01932 1.277627,0.136592 3.818361,0.747763 3.346485,0.804992 3.796221,0.936848 3.891355,1.1409 0.03155,0.06771 -0.0071,0.327649 -0.08602,0.577659 -0.172677,0.547326 -0.325225,2.154803 -0.273986,2.887129 0.03064,0.437364 1.63e-4,0.571353 -0.175729,0.773718 -0.249316,0.286834 -0.327895,0.292104 -1.638716,0.109818 z"
       id="path436-3" />
    <path
       style="display:inline;fill:#000000;stroke:#ffffff;stroke-width:0.0934199"
       d="m 23.234827,18.719094 c -3.394675,-0.867312 -4.044455,-1.06103 -4.186694,-1.248175 -0.161517,-0.21252 -0.154306,-0.264121 0.177426,-1.26893 0.868205,-2.629787 2.047273,-4.818989 3.417155,-6.3447242 1.050266,-1.169755 3.963072,-3.625758 5.119609,-4.316726 0.958869,-0.572869 1.520533,-0.72477 3.084497,-0.834198 3.166821,-0.221575 5.51613,0.375806 9.231799,2.347465 2.804789,1.488313 4.233236,2.628717 5.779455,4.6140492 0.92913,1.192997 1.257923,1.729565 1.190845,1.94338 -0.046,0.146672 -0.822381,0.820125 -3.661177,3.175848 -1.982291,1.644966 -2.487943,2.012274 -2.800271,2.034127 -0.07616,0.0053 -0.554488,-0.423295 -1.062934,-0.9525 -1.153766,-1.200877 -1.801672,-1.669777 -2.904011,-2.101686 -1.559357,-0.610976 -2.676447,-0.709303 -4.146053,-0.364933 -1.970357,0.461706 -2.446763,0.800812 -3.807973,2.710536 -1.159919,1.627314 -1.157658,1.624475 -1.296565,1.62917 -0.06424,0.0022 -1.925031,-0.458045 -4.135108,-1.022703 z"
       id="path438-1" />
    <text
       xml:space="preserve"
       id="text440-9"
       style="font-size:10.5833px;line-height:1.25;font-family:'Fira Code';-inkscape-font-specification:'Fira Code';word-spacing:0px;white-space:pre;shape-inside:url(#rect454-36753);display:inline;fill:#000000;"
       transform="rotate(-4.0023749,41.759886,168.34006)" />
    <path
       d="m 15.529468,63.89184 h 4.36033 l 0.141111,-1.015999 h -5.729107 v 9.722548 h 1.227666 v -4.317997 h 3.809997 v -0.987777 h -3.809997 z"
       style="font-style:normal;font-variant:normal;font-weight:normal;font-stretch:normal;font-size:14.1111px;line-height:1.25;font-family:'Fira Mono';-inkscape-font-specification:'Fira Mono';word-spacing:0px;fill:#000000;stroke-width:0.264583"
       id="path158" />
    <path
       d="m 28.624548,67.74417 c 0,-2.991553 -1.213555,-5.023551 -3.570109,-5.023551 -2.356553,0 -3.570108,2.102553 -3.570108,5.037662 0,3.005665 1.213555,4.99533 3.570108,4.99533 2.356554,0 3.570109,-2.060221 3.570109,-5.009441 z m -1.269999,0 c 0,2.596443 -0.663222,3.97933 -2.30011,3.97933 -1.594554,0 -2.300109,-1.368776 -2.300109,-3.965219 0,-2.582331 0.663222,-4.007552 2.300109,-4.007552 1.636888,0 2.30011,1.41111 2.30011,3.993441 z"
       style="font-style:normal;font-variant:normal;font-weight:normal;font-stretch:normal;font-size:14.1111px;line-height:1.25;font-family:'Fira Mono';-inkscape-font-specification:'Fira Mono';word-spacing:0px;fill:#000000;stroke-width:0.264583"
       id="path160" />
    <path
       d="m 65.821168,65.528906 c 0,-1.806221 -1.255888,-2.737553 -3.654775,-2.737553 h -2.483554 v 9.722548 h 1.213555 v -4.162775 h 1.312332 l 2.666998,4.162775 h 1.467554 l -2.892775,-4.303886 c 1.340554,-0.338666 2.370665,-1.227666 2.370665,-2.681109 z m -1.298222,0 c 0,1.340555 -0.804332,1.862665 -2.201331,1.862665 H 60.896394 V 63.77913 h 1.41111 c 1.495776,0 2.215442,0.493888 2.215442,1.749776 z"
       style="font-style:normal;font-variant:normal;font-weight:normal;font-stretch:normal;font-size:14.1111px;line-height:1.25;font-family:'Fira Mono';-inkscape-font-specification:'Fira Mono';word-spacing:0px;fill:#000000;stroke-width:0.264583"
       id="path172" />
    <path
       d="m 73.723362,62.791353 h -5.559773 v 0.987777 h 2.158998 v 7.761105 h -2.158998 v 0.973666 h 5.559773 V 71.540235 H 71.564364 V 63.77913 h 2.158998 z"
       style="font-style:normal;font-variant:normal;font-weight:normal;font-stretch:normal;font-size:14.1111px;line-height:1.25;font-family:'Fira Mono';-inkscape-font-specification:'Fira Mono';word-spacing:0px;fill:#000000;stroke-width:0.264583"
       id="path174" />
    <path
       d="m 80.750669,72.513901 h 1.721554 v -9.722548 h -1.142999 v 4.868329 c 0,1.749777 0.155222,3.316109 0.169333,3.71122 l -3.485442,-8.579549 h -1.66511 v 9.722548 h 1.142999 v -4.86833 c 0,-1.495776 -0.141111,-3.245553 -0.169333,-3.668886 z"
       style="font-style:normal;font-variant:normal;font-weight:normal;font-stretch:normal;font-size:14.1111px;line-height:1.25;font-family:'Fira Mono';-inkscape-font-specification:'Fira Mono';word-spacing:0px;fill:#000000;stroke-width:0.264583"
       id="path176" />
    <path
       d="m 88.469419,63.849685 h 2.935109 l 0.127,-1.058332 h -7.323661 v 1.058332 h 3.033886 v 8.664216 h 1.227666 z"
       style="font-style:normal;font-variant:normal;font-weight:normal;font-stretch:normal;font-size:14.1111px;line-height:1.25;font-family:'Fira Mono';-inkscape-font-specification:'Fira Mono';word-spacing:0px;fill:#000000;stroke-width:0.264583"
       id="path178" />
  </g>
  <g
     inkscape:label="main"
     inkscape:groupmode="layer"
     id="g450"
     style="display:inline">
    <text
       xml:space="preserve"
       id="text368"
       style="font-size:10.5833px;line-height:1.25;font-family:'Fira Code';-inkscape-font-specification:'Fira Code';word-spacing:0px;white-space:pre;shape-inside:url(#rect452);"
       transform="matrix(0.49908009,-0.07781771,0.07781771,0.49908009,-13.579445,10.258583)" />
    <path
       style="fill:#ffffff;stroke:#ffffff;stroke-width:0.0660577"
       d="m 29.748478,76.198188 c 0.05354,-0.931273 0.104866,-1.221655 0.279112,-1.578964 0.180677,-0.370487 0.297296,-0.93765 0.270766,-1.316826 -0.01212,-0.17167 -0.0071,-0.360295 0.01087,-0.419166 0.04147,-0.135756 0.31984,-0.157058 1.485137,-0.113622 0.487318,0.01815 1.154147,0.03197 1.481846,0.03072 l 0.595813,-0.0023 -0.42249,-0.165633 c -0.7479,-0.293175 -1.528067,-0.869431 -2.04573,-2.039086 -1.190762,-2.690516 -1.077205,-6.130516 -0.730183,-7.740049 0.280419,-1.300621 0.702897,-2.16854 1.238048,-2.827736 0.325504,-0.400954 0.320947,-0.397598 -1.462905,1.076693 -0.837941,0.692532 -1.549768,1.235293 -1.581837,1.206136 -0.09585,-0.08716 -3.201375,-4.842229 -3.236336,-4.95538 -0.0243,-0.07866 0.918918,-0.731086 3.833704,-2.651738 2.224151,-1.465564 3.892042,-2.524354 3.927388,-2.493138 0.206758,0.182586 2.724845,3.934939 2.734886,4.075416 0.0099,0.137784 -0.09233,0.251238 -0.568136,0.63087 -0.858018,0.684586 -2.512697,2.038797 -2.583597,2.114456 -0.03388,0.03616 0.08185,-0.01294 0.257247,-0.109031 0.268634,-0.14726 0.427867,-0.182421 1.010782,-0.223206 0.629328,-0.04405 0.728888,-0.03362 1.100701,0.115529 0.609445,0.244414 1.376369,0.948192 1.817138,1.667518 0.814464,1.3292 1.252539,2.90905 1.39958,5.047382 0.232437,3.378697 -0.7822,5.934858 -2.736158,6.893827 l -0.367724,0.180471 0.294692,0.02884 c 0.162077,0.01586 0.416327,0.0624 0.564997,0.103443 0.148673,0.04106 0.431638,0.07704 0.628813,0.08001 0.71534,0.01076 0.769196,0.147474 0.860323,2.183959 0.03912,0.873884 0.0746,1.879175 0.0789,2.233976 l 0.0078,0.645094 c -0.498357,0.185031 -3.122261,0.477751 -4.350806,0.602553 -1.62725,0.166908 -3.276154,0.343715 -3.664234,0.392899 -1.029981,-0.239886 -0.175473,-1.90373 -0.128407,-2.673917 z m 5.910707,-5.137686 c 0.936165,-0.510444 1.479074,-1.710711 1.592622,-3.520987 0.05558,-0.886264 -0.197292,-3.363883 -0.427561,-4.189159 -0.473401,-1.69661 -1.103444,-2.648552 -1.948539,-2.944077 -0.683403,-0.238981 -1.537413,0.06937 -2.150552,0.776485 -0.555281,0.640387 -0.853631,1.473021 -1.00065,2.792614 -0.101889,0.9145 0.06018,3.275287 0.289191,4.214051 0.321454,1.317167 0.833823,2.328711 1.421601,2.806591 0.523819,0.425882 1.508627,0.454438 2.223807,0.06449 z"
       id="path370"
       sodipodi:nodetypes="csccscccsssssssscsscccscscssssccccccssssscscc" />
    <path
       style="fill:#ffffff;stroke:#ffffff;stroke-width:0.0660577"
       d="m 43.746646,72.31865 -0.553328,0.01627 0.02051,-0.330248 c 0.05969,-0.96109 0.06108,-3.591251 0.0028,-5.416791 -0.07575,-2.374107 -0.36855,-5.401326 -0.761209,-7.869991 -0.126056,-0.792432 -0.234747,-1.507444 -0.241551,-1.588916 -0.01,-0.119684 -0.04969,-0.145515 -0.206709,-0.13453 -0.43051,0.03009 -2.572452,0.691301 -3.191683,0.985212 -0.08636,0.04098 -0.127014,-0.0053 -0.201074,-0.229091 -0.05106,-0.154259 -0.205554,-0.597064 -0.343333,-0.984009 -0.202591,-0.568969 -0.23443,-0.715254 -0.166455,-0.764785 0.163547,-0.119176 1.570392,-0.709413 2.176574,-0.913172 1.065943,-0.358304 1.784112,-0.502627 2.905896,-0.583963 1.339056,-0.09709 2.333854,-0.01189 3.619458,0.309984 0.406726,0.101831 0.425163,0.115143 0.393507,0.284075 -0.01827,0.09749 -0.07586,0.547481 -0.127968,0.999994 -0.05211,0.452515 -0.104217,0.833169 -0.115784,0.845896 -0.01158,0.01271 -0.367022,-0.02408 -0.789899,-0.08179 -0.720894,-0.09838 -2.559993,-0.171996 -2.614024,-0.104636 -0.0135,0.01679 0.0769,0.857819 0.200796,1.868925 0.363904,2.969284 0.60224,6.546642 0.67627,10.150449 0.06997,3.405174 0.06799,3.544161 -0.04919,3.532692 -0.04417,-0.0043 -0.329321,-5.03e-4 -0.633653,0.0085 z"
       id="path372" />
    <path
       style="fill:#ffffff;stroke:#ffffff;stroke-width:0.0665828"
       d="m 50.837998,72.547296 -0.479342,0.01083 -0.129785,-1.88838 c -0.1915,-2.784467 -0.330222,-7.717386 -0.321574,-11.427962 0.0039,-1.693299 0.05876,-3.241834 0.117173,-3.310113 0.01387,-0.0162 0.466582,0.13894 1.006009,0.344802 0.539428,0.205861 1.483586,0.535909 2.098129,0.733434 2.776495,0.892425 3.813192,1.581285 4.37657,2.908128 0.210023,0.494639 0.336348,1.472879 0.289045,2.238337 -0.146161,2.36529 -0.996773,3.747886 -2.656333,4.317643 -0.546892,0.187759 -1.653596,0.253675 -2.763408,0.164586 -0.509144,-0.04087 -0.936749,-0.06141 -0.950232,-0.04566 -0.01348,0.01575 -0.03383,0.555009 -0.04522,1.198331 -0.0231,1.304628 0.102497,3.694184 0.227625,4.330826 l 0.0815,0.414684 -0.185407,-2.66e-4 c -0.101974,-1.31e-4 -0.401107,0.0048 -0.664745,0.01063 z m 3.499951,-7.467955 c 1.201353,-0.2867 1.783842,-1.175947 1.864438,-2.846331 0.08123,-1.683589 -0.562427,-2.804294 -1.946552,-3.389255 -0.506888,-0.214219 -2.895718,-0.856353 -2.949949,-0.792965 -0.105925,0.123806 -0.06929,2.919682 0.0715,5.456678 l 0.08167,1.471479 0.700181,0.07083 c 0.648472,0.06559 1.4289,0.125466 1.664275,0.127683 0.05468,5.12e-4 0.28616,-0.04365 0.514439,-0.0981 z"
       id="path374" />
    <path
       style="fill:#ffffff;stroke:#ffffff;stroke-width:0.0660577"
       d="m 29.528195,85.282738 c -0.188993,-0.102392 -0.247576,-0.396085 -0.23486,-1.177386 0.0069,-0.426098 0.01398,-1.110648 0.01566,-1.521223 0.0036,-0.873997 0.06277,-0.989722 0.644303,-1.25973 0.324343,-0.150596 0.526246,-0.181151 2.135162,-0.323135 1.415929,-0.124957 1.931887,-0.145934 2.539553,-0.103329 0.419434,0.02942 1.193784,0.02348 1.720779,-0.01319 0.526995,-0.03669 1.071818,-0.04352 1.210723,-0.01524 0.431067,0.08785 0.529522,0.341154 0.637546,1.640329 0.05327,0.640871 0.04461,0.763215 -0.07493,1.063239 -0.262437,0.658389 -0.6281,0.780842 -3.129695,1.048049 -1.049413,0.112092 -2.6008,0.310919 -3.447521,0.441832 -1.700501,0.26292 -1.897431,0.284378 -2.016726,0.219749 z"
       id="path376" />
    <path
       style="fill:#ffffff;stroke:#ffffff;stroke-width:0.0660577"
       d="m 30.550977,92.400681 c -0.142904,-0.149576 -0.528696,-2.243768 -0.606123,-3.29018 -0.05985,-0.808841 -0.05572,-1.022345 0.02242,-1.162181 l 0.09574,-0.171309 3.596185,-0.535559 c 2.732535,-0.406939 3.646468,-0.564749 3.805543,-0.657104 0.152691,-0.08865 0.257029,-0.108228 0.38549,-0.07236 0.287014,0.08017 0.437039,0.322739 0.586996,0.949134 0.299256,1.250034 0.317817,1.35224 0.26641,1.466883 -0.03328,0.0742 -0.739309,0.407898 -1.968752,0.930529 -1.945696,0.82711 -5.818347,2.488111 -6.004571,2.575397 -0.05606,0.02629 -0.136759,0.01144 -0.179347,-0.03326 z"
       id="path378" />
    <path
       style="fill:#ffffff;stroke:#ffffff;stroke-width:0.0660577"
       d="m 42.901526,101.1521 c -1.825034,-0.14891 -3.790898,-0.53316 -4.736465,-0.9258 -0.241986,-0.10047 -0.65832,-0.322066 -0.925184,-0.492406 -0.266863,-0.17035 -1.171216,-0.71562 -2.009672,-1.21172 -2.308649,-1.36597 -2.358267,-1.40637 -2.944059,-2.39721 -0.467982,-0.791579 -0.558675,-1.024358 -0.463296,-1.189144 0.08119,-0.140261 0.61114,-0.455383 1.170028,-0.695717 0.5066,-0.217854 2.724104,-1.34321 5.002179,-2.53855 0.98668,-0.517727 1.340676,-0.596051 1.957101,-0.433028 0.28265,0.07475 0.380822,0.154923 0.818954,0.668808 0.273793,0.321136 0.589552,0.623474 0.701684,0.671862 0.112134,0.04839 0.593864,0.149814 1.070516,0.225386 1.398304,0.221698 3.01942,0.05767 4.126623,-0.417526 0.766536,-0.328992 1.032169,-0.5296 1.501234,-1.133753 0.314303,-0.404812 0.468286,-0.546865 0.667448,-0.615725 0.383755,-0.132687 0.834004,-0.03735 1.221894,0.258699 0.226961,0.173231 1.113274,0.551976 3.193737,1.364759 3.39576,1.326637 3.487565,1.366793 3.600516,1.574843 0.09997,0.184114 0.14553,0.08535 -0.652342,1.413775 -0.450959,0.750841 -0.632041,0.981031 -1.21621,1.546051 -1.547377,1.49665 -2.881659,2.59839 -3.664899,3.02615 -0.441143,0.240946 -0.844028,0.349536 -2.543401,0.685626 -2.766215,0.54709 -4.491898,0.72758 -5.876386,0.61462 z"
       id="path380" />
    <path
       style="fill:#ffffff;stroke:#ffffff;stroke-width:0.0660577"
       d="m 57.427715,78.310406 c -0.05529,-0.0095 -1.696418,-0.04088 -3.646943,-0.06981 -2.403295,-0.03564 -3.618109,-0.07898 -3.768852,-0.134443 -0.122345,-0.04502 -0.256758,-0.156044 -0.298698,-0.246728 -0.0445,-0.09625 -0.145191,-1.150384 -0.241933,-2.532866 -0.162117,-2.316951 -0.162891,-2.371181 -0.03713,-2.515907 0.09591,-0.110343 0.173759,-0.139583 0.306486,-0.115104 0.15261,0.02814 3.421892,-0.08516 7.038968,-0.243897 l 1.049889,-0.04612 0.173719,0.175532 0.173723,0.17553 0.116162,2.249154 c 0.141223,2.734199 0.138221,2.911041 -0.0527,3.130701 -0.138756,0.15964 -0.475368,0.231673 -0.812704,0.17392 z"
       id="path382" />
    <path
       style="fill:#ffffff;stroke:#ffffff;stroke-width:0.0660577"
       d="m 56.940636,84.598822 c -0.237285,-0.0079 -1.320214,-0.117258 -2.40651,-0.243076 -1.086297,-0.125817 -2.331709,-0.251131 -2.767583,-0.278474 -1.766061,-0.11079 -1.768117,-0.111578 -1.961497,-0.751444 -0.163593,-0.541299 -0.297363,-2.190406 -0.209404,-2.581483 0.108191,-0.481017 0.428851,-0.618029 0.997003,-0.426007 0.329832,0.111475 5.715577,0.411248 6.803398,0.378682 1.414197,-0.04238 1.430144,-0.02824 1.411601,1.246254 -0.02325,1.598247 -0.120951,2.06249 -0.502587,2.388143 -0.201274,0.171748 -0.787101,0.286562 -1.364425,0.267405 z"
       id="path384" />
    <path
       style="fill:#ffffff;stroke:#ffffff;stroke-width:0.0660577"
       d="m 56.010142,91.174786 c -0.695386,-0.30879 -1.763858,-0.801641 -2.374383,-1.095227 -1.360966,-0.654449 -2.031421,-0.895937 -2.636626,-0.949674 -0.56147,-0.04986 -0.958062,-0.222829 -1.146691,-0.500135 -0.127394,-0.187287 -0.141801,-0.289633 -0.155073,-1.101763 -0.01034,-0.633669 0.01086,-0.92462 0.07259,-0.995636 0.04797,-0.05518 0.230109,-0.153885 0.404756,-0.219331 0.314068,-0.117687 0.359213,-0.113708 4.128231,0.364234 2.290501,0.290451 3.880412,0.522236 3.985467,0.581023 0.09612,0.05378 0.230753,0.196759 0.29917,0.317696 0.118969,0.210299 0.118845,0.255649 -0.0029,1.039913 -0.208152,1.341301 -0.394968,2.002091 -0.729639,2.580833 -0.216664,0.374676 -0.340332,0.523383 -0.440859,0.530132 -0.07686,0.0052 -0.70868,-0.243271 -1.404066,-0.552065 z"
       id="path386" />
    <path
       style="fill:#ffffff;stroke:#ffffff;stroke-width:0.0660577"
       d="m 42.232589,90.717786 c -0.173187,-0.08566 -0.745778,-0.63616 -1.10719,-1.064471 -0.365388,-0.433019 -0.736507,-1.224949 -0.76502,-1.632482 -0.01892,-0.270501 0.0092,-0.367479 0.166569,-0.574191 0.148511,-0.195081 0.209868,-0.233973 0.284524,-0.180351 0.05235,0.03759 0.137712,0.04854 0.189695,0.0243 0.05385,-0.02508 0.36439,0.107307 0.721626,0.30768 0.742103,0.416242 0.764326,0.450982 1.001471,1.565537 0.273391,1.284913 0.09624,1.84478 -0.491675,1.553975 z"
       id="path388" />
    <path
       style="fill:#ffffff;stroke:#ffffff;stroke-width:0.0660577"
       d="m 45.700758,90.676129 c -0.05933,-0.09257 -0.115362,-0.466827 -0.15976,-1.067026 -0.0572,-0.772578 -0.05102,-0.971515 0.03749,-1.211124 0.05824,-0.157687 0.133205,-0.288613 0.166599,-0.29095 0.09776,-0.0069 1.10076,-1.090163 1.094336,-1.181974 -0.0069,-0.09781 0.237136,-0.189841 0.461181,-0.173964 0.212831,0.01507 0.262745,0.357079 0.128746,0.882135 -0.05562,0.21788 -0.119159,0.665594 -0.141231,0.994922 -0.02208,0.32933 -0.06881,0.726594 -0.103866,0.882808 -0.083,0.369887 -0.389905,0.81266 -0.744316,1.073807 -0.347353,0.255947 -0.61271,0.288745 -0.739174,0.09136 z"
       id="path390" />
    <path
       style="fill:#ffffff;stroke:#ffffff;stroke-width:0.0660577"
       d="m 45.28631,84.612955 c -0.166672,-0.234766 -0.207706,-0.584119 -0.142737,-1.21536 0.05047,-0.490356 0.0316,-0.471103 1.064477,-1.086303 0.647235,-0.385504 1.043933,-0.492023 1.204907,-0.32353 0.04414,0.04619 0.124242,0.438273 0.178028,0.871287 l 0.09778,0.787301 -0.404673,0.333749 c -0.426909,0.352084 -1.330682,0.801392 -1.658059,0.824298 -0.148338,0.01043 -0.228518,-0.0348 -0.339727,-0.191442 z"
       id="path392" />
    <path
       style="fill:#ffffff;stroke:#ffffff;stroke-width:0.0660577"
       d="m 42.09052,84.917303 c -0.328968,-0.04163 -0.573954,-0.131334 -1.24859,-0.457198 -0.698984,-0.337624 -0.94294,-0.666279 -0.9893,-1.332769 -0.05923,-0.849857 0.218702,-1.377686 0.744506,-1.414477 0.298341,-0.02084 0.396813,0.0396 1.280379,0.786425 0.651755,0.550879 0.68857,0.620412 0.824975,1.558122 0.08067,0.554631 0.07753,0.609472 -0.04284,0.747964 -0.139813,0.160849 -0.156542,0.164139 -0.569131,0.111936 z"
       id="path394" />
    <path
       style="fill:#ffffff;stroke:#ffffff;stroke-width:0.0660577"
       d="m 41.671702,79.6751 c -0.467563,-0.108533 -1.391038,-0.681747 -1.637763,-1.016589 -0.324727,-0.440697 -0.495719,-1.074489 -0.506381,-1.876906 -0.0098,-0.736577 0.02542,-0.874258 0.313061,-1.224128 0.128902,-0.156793 0.227072,-0.219158 0.312442,-0.198493 0.06846,0.01656 0.15917,-0.003 0.201566,-0.04352 0.05685,-0.05431 0.33129,0.114558 1.045358,0.643225 0.532552,0.394276 0.998665,0.763246 1.035812,0.819936 0.07995,0.122002 0.171862,1.473947 0.139998,2.058216 -0.0123,0.225176 0.0049,0.469844 0.03823,0.543708 0.108358,0.239941 0.02508,0.33569 -0.307617,0.353959 -0.168464,0.0091 -0.454068,-0.01748 -0.634697,-0.05942 z"
       id="path396" />
    <path
       style="fill:#ffffff;stroke:#ffffff;stroke-width:0.0660577"
       d="m 45.291603,79.447483 c -0.23806,-0.179638 -0.340141,-0.640346 -0.405792,-1.83141 l -0.05034,-0.912655 0.242811,-0.208932 c 0.133546,-0.114912 0.348115,-0.234184 0.476824,-0.265045 0.422713,-0.10136 0.632131,-0.206595 0.780185,-0.392058 0.23861,-0.298894 0.622786,-0.595541 0.786061,-0.606965 0.267912,-0.01877 0.318836,0.171379 0.40593,1.515583 0.0706,1.089247 0.0959,1.261572 0.194714,1.323712 0.06246,0.03929 0.09983,0.116435 0.08303,0.171422 -0.01681,0.05497 -0.4022,0.369345 -0.856439,0.698581 -0.743196,0.538672 -0.858453,0.600889 -1.151103,0.621363 -0.242864,0.01695 -0.370971,-0.01176 -0.505907,-0.113595 z"
       id="path398" />
    <path
       style="fill:#ffffff;stroke:#ffffff;stroke-width:0.0934199"
       d="m 56.53563,58.057245 c -0.260284,-0.08494 -1.931183,-0.682136 -3.713111,-1.327112 -1.781929,-0.644975 -3.322952,-1.166867 -3.424499,-1.159762 -0.101548,0.0071 -0.285414,-0.05763 -0.408595,-0.143886 -0.221245,-0.154897 -0.223304,-0.167565 -0.169214,-1.041702 0.03012,-0.486696 0.119297,-1.331904 0.198184,-1.878241 0.09056,-0.627174 0.115269,-1.172604 0.06703,-1.479649 l -0.07639,-0.486308 0.280491,-0.01963 c 0.457499,-0.03198 3.446191,0.121573 4.710074,0.242041 0.644599,0.06144 1.390507,0.181896 1.657574,0.267675 0.267069,0.08578 0.867024,0.187024 1.333239,0.224984 0.578311,0.0471 0.888213,0.116961 0.97528,0.219897 0.07132,0.08432 0.146603,0.420497 0.170658,0.762096 0.0629,0.894993 0.01943,3.125131 -0.06346,3.247058 -0.06781,0.09974 -0.107337,0.695315 -0.109943,1.656984 -0.0026,0.971911 -0.424785,1.242699 -1.427312,0.91555 z"
       id="path400" />
    <path
       style="fill:#ffffff;stroke:#ffffff;stroke-width:0.0934199"
       d="m 44.7464,53.103175 c -0.903735,-0.494107 -1.897369,-1.038284 -2.20807,-1.209277 -0.310704,-0.170997 -0.607246,-0.400114 -0.658979,-0.509153 -0.05175,-0.109039 -0.220138,-0.944262 -0.374227,-1.856051 l -0.280164,-1.657801 0.194134,-0.181036 c 0.110214,-0.102782 0.264415,-0.160722 0.356727,-0.134037 0.318351,0.09203 1.928468,0.903894 3.280507,1.654138 0.755213,0.419063 1.41858,0.758751 1.474155,0.754861 0.238255,-0.01661 0.521756,0.457761 0.554675,0.928228 0.0501,0.715353 -0.007,2.611305 -0.08594,2.855139 -0.134799,0.416459 -0.505467,0.310331 -2.252818,-0.645011 z"
       id="path402" />
    <path
       style="fill:#ffffff;stroke:#ffffff;stroke-width:0.0934199"
       d="M 36.590783,53.152696 C 36.006656,52.34972 35.522645,51.605668 35.5152,51.499245 c -0.0093,-0.131985 0.190092,-0.367847 0.627034,-0.741963 0.352317,-0.301661 1.065715,-0.937501 1.585332,-1.412981 0.755651,-0.691464 0.992315,-0.85882 1.182337,-0.836095 0.186438,0.0223 0.241513,0.08459 0.25584,0.289358 0.01005,0.143522 0.05613,0.272345 0.102405,0.286276 0.119111,0.03585 0.627893,2.121028 0.579852,2.376441 -0.02312,0.122923 0.01171,0.238507 0.08306,0.276022 0.0856,0.04496 -0.227119,0.48989 -1.031114,1.467045 -0.634682,0.771377 -1.17493,1.404032 -1.200552,1.405902 -0.02561,0.0019 -0.524507,-0.653579 -1.10863,-1.456554 z"
       id="path404" />
    <path
       style="fill:#ffffff;stroke:#ffffff;stroke-width:0.0934199"
       d="M 23.471545,53.76342 C 23.125523,53.177329 21.131722,48.9581 21.036193,48.609789 l -0.07604,-0.277238 4.199726,-1.380817 c 3.143807,-1.033646 4.243112,-1.360375 4.372288,-1.299506 0.209066,0.09851 2.415707,3.890335 2.363466,4.061303 -0.02645,0.08655 -6.815903,3.819739 -8.059642,4.431619 -0.0612,0.03011 -0.218685,-0.134837 -0.364449,-0.38173 z"
       id="path406" />
    <path
       style="fill:#ffffff;stroke:#ffffff;stroke-width:0.0934199"
       d="m 33.854451,48.951129 c -0.05973,-0.06254 -0.355682,-0.675737 -0.657647,-1.362674 -0.794743,-1.807966 -0.793472,-1.818553 0.386697,-3.219583 2.894134,-3.435762 3.347851,-3.940066 3.55806,-3.954772 0.340205,-0.02382 0.53827,0.429103 0.832459,1.903536 0.306392,1.535595 0.311119,1.562679 0.312558,1.791281 0.001,0.146927 -2.329696,3.078927 -3.542386,4.456427 -0.420822,0.478013 -0.690087,0.594765 -0.889741,0.385785 z"
       id="path408" />
    <path
       style="fill:#ffffff;stroke:#ffffff;stroke-width:0.0934199"
       d="m 45.828041,46.159934 c -0.503276,-0.107339 -5.047149,-2.153642 -5.355233,-2.411693 -0.252525,-0.211514 -0.289122,-0.315754 -0.437453,-1.245935 -0.410665,-2.575289 -0.398066,-2.406764 -0.19724,-2.637812 l 0.183704,-0.211343 0.885133,0.252311 c 3.150246,0.897983 5.186981,1.611093 5.763584,2.01797 0.212983,0.150291 0.301872,0.314838 0.402811,0.745672 0.17242,0.735914 0.332795,3.078679 0.226899,3.314793 -0.06872,0.153224 -0.18017,0.192219 -0.617023,0.215865 -0.293236,0.01588 -0.678079,-0.002 -0.855202,-0.03983 z"
       id="path410" />
    <path
       style="fill:#ffffff;stroke:#ffffff;stroke-width:0.0934199"
       d="m 55.483479,47.117988 c -0.48005,-0.05167 -1.552757,-0.03369 -2.94646,0.04939 -2.769557,0.165121 -2.887066,0.130857 -3.13854,-0.915043 -0.182031,-0.757093 -0.418976,-2.804257 -0.369096,-3.188949 0.02549,-0.196653 0.112931,-0.347902 0.233295,-0.403569 0.105883,-0.04897 1.148927,-0.264895 2.317872,-0.479835 1.860034,-0.342018 2.547082,-0.426159 4.270019,-0.522964 0.205218,-0.01156 0.556989,-0.110054 0.781713,-0.218955 0.478609,-0.23192 1.015569,-0.210051 1.319032,0.05372 0.148148,0.128775 0.202924,0.298018 0.232289,0.717708 0.0627,0.896457 -0.0444,3.122595 -0.172416,3.58304 -0.06536,0.235064 -0.09453,0.592032 -0.06483,0.793266 0.04756,0.322167 0.02684,0.375643 -0.174407,0.447694 -0.367037,0.131486 -1.472784,0.172312 -2.288467,0.08449 z"
       id="path412" />
    <path
       style="fill:#ffffff;stroke:#ffffff;stroke-width:0.0934199"
       d="m 49.182207,39.779937 c -0.161027,-0.0098 -0.302252,-0.09271 -0.362674,-0.213051 -0.143662,-0.286095 -0.659713,-3.677746 -0.57442,-3.775281 0.117105,-0.133919 1.673054,-0.839365 2.448755,-1.110241 0.394824,-0.137871 0.795888,-0.298999 0.891252,-0.358062 0.311019,-0.192624 1.181692,-0.427292 1.752657,-0.472382 0.439067,-0.03464 0.662452,-0.111101 1.042546,-0.35668 0.702888,-0.454134 1.054955,-0.559758 1.436252,-0.430888 0.522192,0.176489 0.638526,0.433171 1.103313,2.434368 0.476975,2.053669 0.483841,2.426462 0.05135,2.791213 -0.305726,0.257866 -5.496239,1.25055 -5.92667,1.133473 -0.221086,-0.06014 -0.35962,-0.03833 -0.617638,0.0972 -0.358795,0.188481 -0.824151,0.285806 -1.24477,0.260326 z"
       id="path414" />
    <path
       style="fill:#ffffff;stroke:#ffffff;stroke-width:0.0934199"
       d="m 45.288329,38.742817 c -0.286214,-0.122114 -1.886367,-0.863522 -3.555903,-1.647577 -3.11322,-1.462042 -3.304664,-1.583474 -3.349666,-2.124693 -0.0097,-0.117764 -0.183685,-0.813561 -0.38643,-1.546222 l -0.368622,-1.332103 0.182606,-0.176663 c 0.22357,-0.216289 0.4705,-0.243044 0.636778,-0.069 0.06867,0.07189 0.153716,0.109963 0.188974,0.0846 0.03526,-0.02536 1.462626,0.423736 3.171931,0.997974 1.709305,0.574239 3.160238,1.019635 3.224297,0.989772 0.06407,-0.02986 0.195789,0.01464 0.292735,0.09891 0.135707,0.117955 0.269188,0.609086 0.580149,2.134602 0.486187,2.385134 0.486542,2.389032 0.23955,2.61936 -0.250545,0.233649 -0.240043,0.234004 -0.856404,-0.02898 z"
       id="path416" />
    <path
       style="fill:#ffffff;stroke:#ffffff;stroke-width:0.0934199"
       d="m 30.988558,42.642166 c -0.06527,-0.03533 -0.364269,-0.798529 -0.664445,-1.695987 l -0.545773,-1.631747 0.286778,-0.355529 c 1.748203,-2.167269 5.147864,-6.089016 5.286845,-6.098741 0.260223,-0.01818 0.352395,0.235395 0.78004,2.146155 0.471937,2.108654 0.477693,2.072639 -0.497062,3.108969 -0.371984,0.395481 -1.303706,1.395081 -2.070487,2.221327 -2.342596,2.524273 -2.278255,2.466683 -2.575896,2.305553 z"
       id="path418" />
    <path
       style="fill:#ffffff;stroke:#ffffff;stroke-width:0.0934199"
       d="m 19.582741,45.26995 c -0.08473,-0.209453 -1.252222,-6.070082 -1.216613,-6.107201 0.02994,-0.0312 8.105843,-1.005956 8.545895,-1.031462 0.119123,-0.007 0.17522,0.13347 0.264622,0.662247 0.193378,1.143745 0.610491,2.660536 0.891374,3.241395 0.324677,0.671426 0.342826,0.826783 0.113427,0.971007 -0.294096,0.184897 -3.688929,1.365652 -4.691669,1.631809 -0.516588,0.137116 -1.544024,0.339033 -2.283199,0.4487 -0.739168,0.109677 -1.396699,0.221086 -1.461176,0.247601 -0.06447,0.02652 -0.137675,-0.0023 -0.162659,-0.06409 z"
       id="path420" />
    <path
       style="fill:#ffffff;stroke:#ffffff;stroke-width:0.0934199"
       d="m 20.929807,35.777043 c -0.389353,-0.04365 -1.174103,-0.04928 -1.743885,-0.01251 -0.984992,0.06361 -1.051375,0.05551 -1.348839,-0.162942 l -0.31286,-0.22981 -0.08527,-1.181413 c -0.04676,-0.649787 -0.07254,-1.32225 -0.05717,-1.494371 0.188666,-2.105212 0.202667,-2.190429 0.412266,-2.509127 0.204317,-0.31067 0.245749,-0.329581 0.808159,-0.368932 0.32604,-0.02279 0.755207,0.0088 0.953702,0.07035 0.548976,0.170113 3.683851,0.440645 5.160214,0.445314 0.721211,0.0023 1.339543,0.0317 1.374068,0.06538 0.03453,0.03368 0.154081,1.017488 0.265652,2.186246 0.201401,2.109536 0.201455,2.126633 0.0093,2.347756 -0.452053,0.520071 -3.752963,1.03266 -5.435374,0.844046 z"
       id="path422" />
    <path
       style="fill:#ffffff;stroke:#ffffff;stroke-width:0.0934199"
       d="m 29.032721,34.262205 c -0.0672,-0.497487 -0.191865,-1.5107 -0.277022,-2.251583 -0.08516,-0.740889 -0.18937,-1.386792 -0.231602,-1.435342 -0.04352,-0.05002 0.973999,-1.372627 2.348078,-3.052151 1.333674,-1.630128 2.443246,-2.919336 2.465721,-2.864905 0.02249,0.05443 0.09948,0.09486 0.171111,0.08984 0.151406,-0.01058 0.138225,-0.04977 0.641752,1.907019 0.212772,0.82689 0.402543,1.727524 0.421705,2.001405 l 0.03479,0.497976 -1.950786,2.319749 c -2.465234,2.931496 -3.13172,3.666625 -3.337286,3.68101 -0.141722,0.0099 -0.181125,-0.112902 -0.286514,-0.893025 z"
       id="path424" />
    <path
       style="fill:#ffffff;stroke:#ffffff;stroke-width:0.0934199"
       d="m 42.553204,30.289992 c -1.68317,-0.545457 -5.494854,-1.871822 -5.626068,-1.95772 -0.06013,-0.03935 -0.191261,-0.518457 -0.291401,-1.064657 -0.100154,-0.546196 -0.296469,-1.463361 -0.43629,-2.038145 -0.139819,-0.574783 -0.256861,-1.082829 -0.26009,-1.128991 -0.01746,-0.249361 0.793184,-0.08119 2.58277,0.535786 1.632069,0.562678 2.01687,0.66211 2.48583,0.642335 l 0.554847,-0.02345 0.440273,0.50194 c 0.242153,0.276066 0.689746,0.908715 0.994655,1.405885 0.504654,0.822867 0.562988,0.971023 0.650389,1.651845 0.08321,0.648179 0.127088,0.769001 0.329017,0.906164 0.365625,0.248351 0.346853,0.920366 -0.0264,0.944302 -0.109876,0.0072 -0.738786,-0.161858 -1.397552,-0.375343 z"
       id="path426" />
    <path
       style="fill:#ffffff;stroke:#ffffff;stroke-width:0.0934199"
       d="m 47.484206,32.924359 c -0.192513,-0.122121 -0.462187,-0.998273 -0.698368,-2.268929 -0.08978,-0.483028 -0.263684,-1.073159 -0.386453,-1.311397 -0.175836,-0.341225 -0.205362,-0.480922 -0.139113,-0.658184 0.04627,-0.123759 0.495403,-0.541422 0.998105,-0.928145 1.145443,-0.881161 2.454271,-1.520141 3.421924,-1.670593 0.6417,-0.09977 0.696698,-0.126258 0.82206,-0.396037 0.100473,-0.216212 0.259055,-0.338032 0.628905,-0.483113 0.590028,-0.231451 1.373488,-0.312629 1.598484,-0.165628 0.173566,0.113401 0.884343,1.967638 1.346087,3.511587 0.410182,1.371549 0.313146,1.532015 -1.232644,2.038444 -0.495042,0.162184 -1.433794,0.496717 -2.086118,0.74341 -0.652326,0.246693 -1.434664,0.508994 -1.738531,0.58289 -0.303871,0.07389 -0.710699,0.174043 -0.904066,0.222545 -0.238407,0.0598 -0.3944,0.169795 -0.484604,0.341709 -0.196949,0.375345 -0.365123,0.503881 -0.688916,0.526536 -0.159804,0.01122 -0.365342,-0.02712 -0.45675,-0.08511 z"
       id="path428" />
    <path
       style="fill:#ffffff;stroke:#ffffff;stroke-width:0.0934199"
       d="m 44.879596,25.556581 c -0.08885,-0.09015 -0.393018,-0.627253 -0.675975,-1.193541 -0.637511,-1.27586 -1.117736,-2.082805 -1.330409,-2.23556 -0.209148,-0.150219 -0.462961,-0.567288 -0.476299,-0.782662 -0.0065,-0.1053 0.16435,-0.280567 0.458731,-0.470529 0.658465,-0.424901 5.148338,-3.773753 5.366905,-4.002999 0.262706,-0.275544 0.625897,-0.267802 0.889767,0.01897 0.245659,0.266976 2.194282,3.600189 2.344077,4.009656 0.171291,0.468224 0.01666,0.68098 -0.879946,1.210903 -0.459264,0.27143 -1.480315,0.907651 -2.269001,1.413824 -0.788687,0.506172 -1.557451,0.958707 -1.708358,1.005632 -0.150914,0.04692 -0.496769,0.329277 -0.768573,0.627448 -0.532223,0.583861 -0.699521,0.654035 -0.950919,0.398862 z"
       id="path430" />
    <path
       style="fill:#ffffff;stroke:#ffffff;stroke-width:0.0934199"
       d="m 39.263238,22.083913 c -1.722696,-0.98864 -2.62736,-1.416661 -3.341756,-1.581072 -0.424046,-0.09759 -0.818681,-0.174099 -0.876966,-0.17002 -0.05827,0.0042 -0.142264,-0.169148 -0.186621,-0.384948 -0.180214,-0.87672 -0.383913,-2.233959 -0.346089,-2.30596 0.02219,-0.04227 0.179885,-0.113248 0.350411,-0.157755 0.26833,-0.07004 0.408411,-0.02404 1.041119,0.341316 1.645816,0.95055 2.705386,1.946928 3.781987,3.55643 0.361101,0.539844 0.420612,0.683257 0.333723,0.804231 -0.14543,0.202476 -0.249369,0.188416 -0.755808,-0.102222 z"
       id="path432" />
    <path
       style="fill:#ffffff;stroke:#ffffff;stroke-width:0.0934199"
       d="m 28.937973,24.997666 c -0.173355,-0.598711 0.323192,-3.118267 0.872564,-4.427538 0.439576,-1.047602 1.436598,-2.069754 2.004258,-2.05477 0.29042,0.0077 0.33481,0.05389 0.658973,0.686259 0.616294,1.202234 0.530654,1.594216 -0.570548,2.611511 -0.657037,0.606968 -0.861092,0.87811 -1.46474,1.946273 -0.385747,0.682583 -0.781424,1.291396 -0.879284,1.352919 -0.318135,0.200009 -0.542082,0.158677 -0.621223,-0.114654 z"
       id="path434" />
    <path
       style="fill:#ffffff;stroke:#ffffff;stroke-width:0.0934199"
       d="m 24.61426,26.915093 c -0.547965,-0.07617 -1.64861,-0.147123 -2.445882,-0.157659 -0.858502,-0.01134 -1.586732,-0.06914 -1.785927,-0.141731 -0.209748,-0.07644 -0.741048,-0.113216 -1.411561,-0.0977 l -1.075211,0.02492 -0.06682,-0.510389 c -0.08136,-0.621272 0.362132,-4.971584 0.528533,-5.184589 0.08114,-0.103871 0.287194,-0.152362 0.721614,-0.169848 0.481229,-0.01932 1.277627,0.136592 3.818361,0.747763 3.346485,0.804992 3.796221,0.936848 3.891355,1.1409 0.03155,0.06771 -0.0071,0.327649 -0.08602,0.577659 -0.172677,0.547326 -0.325225,2.154803 -0.273986,2.887129 0.03064,0.437364 1.63e-4,0.571353 -0.175729,0.773718 -0.249316,0.286834 -0.327895,0.292104 -1.638716,0.109818 z"
       id="path436" />
    <path
       style="fill:#ffffff;stroke:#ffffff;stroke-width:0.0934199"
       d="m 23.234826,18.719094 c -3.394675,-0.867312 -4.044455,-1.06103 -4.186694,-1.248175 -0.161517,-0.21252 -0.154306,-0.264121 0.177426,-1.26893 0.868205,-2.629787 2.047273,-4.818989 3.417155,-6.3447241 1.050266,-1.169755 3.963072,-3.625758 5.119609,-4.316726 0.958869,-0.572869 1.520533,-0.72477 3.084497,-0.834198 3.166821,-0.221575 5.51613,0.375806 9.231799,2.347465 2.804789,1.488313 4.233236,2.628717 5.779455,4.6140491 0.92913,1.192997 1.257923,1.729565 1.190845,1.94338 -0.046,0.146672 -0.822381,0.820125 -3.661176,3.175848 -1.982292,1.644966 -2.487943,2.012274 -2.800271,2.034127 -0.07616,0.0053 -0.554488,-0.423295 -1.062934,-0.9525 -1.153766,-1.200877 -1.801673,-1.669777 -2.904012,-2.101686 -1.559356,-0.610976 -2.676446,-0.709303 -4.146052,-0.364933 -1.970357,0.461706 -2.446763,0.800812 -3.807973,2.710536 -1.159919,1.627314 -1.157658,1.624475 -1.296565,1.62917 -0.06424,0.0022 -1.925031,-0.458045 -4.135109,-1.022703 z"
       id="path438" />
    <text
       xml:space="preserve"
       id="text440"
       style="font-size:10.5833px;line-height:1.25;font-family:'Fira Code';-inkscape-font-specification:'Fira Code';word-spacing:0px;white-space:pre;shape-inside:url(#rect454);"
       transform="rotate(-4.0023749,41.759889,168.34007)" />
    <path
       d="m 15.529468,63.89184 h 4.360329 l 0.141111,-1.015999 h -5.729106 v 9.722548 h 1.227665 v -4.317997 h 3.809997 v -0.987777 h -3.809997 z"
       style="font-style:normal;font-variant:normal;font-weight:normal;font-stretch:normal;font-size:14.1111px;line-height:1.25;font-family:'Fira Mono';-inkscape-font-specification:'Fira Mono';word-spacing:0px;fill:#ffffff;stroke-width:0.264583"
       id="path153" />
    <path
       d="m 28.624548,67.74417 c 0,-2.991553 -1.213555,-5.023551 -3.570109,-5.023551 -2.356553,0 -3.570108,2.102553 -3.570108,5.037662 0,3.005665 1.213555,4.99533 3.570108,4.99533 2.356554,0 3.570109,-2.060221 3.570109,-5.009441 z m -1.269999,0 c 0,2.596443 -0.663222,3.97933 -2.30011,3.97933 -1.594554,0 -2.300109,-1.368776 -2.300109,-3.965219 0,-2.582331 0.663222,-4.007552 2.300109,-4.007552 1.636888,0 2.30011,1.41111 2.30011,3.993441 z"
       style="font-style:normal;font-variant:normal;font-weight:normal;font-stretch:normal;font-size:14.1111px;line-height:1.25;font-family:'Fira Mono';-inkscape-font-specification:'Fira Mono';word-spacing:0px;fill:#ffffff;stroke-width:0.264583"
       id="path155" />
    <path
       d="m 65.821168,65.528906 c 0,-1.806221 -1.255888,-2.737553 -3.654775,-2.737553 h -2.483554 v 9.722548 h 1.213555 v -4.162775 h 1.312332 l 2.666999,4.162775 h 1.467554 l -2.892775,-4.303886 c 1.340554,-0.338666 2.370664,-1.227666 2.370664,-2.681109 z m -1.298221,0 c 0,1.340555 -0.804333,1.862665 -2.201332,1.862665 H 60.896394 V 63.77913 h 1.41111 c 1.495776,0 2.215443,0.493888 2.215443,1.749776 z"
       style="font-style:normal;font-variant:normal;font-weight:normal;font-stretch:normal;font-size:14.1111px;line-height:1.25;font-family:'Fira Mono';-inkscape-font-specification:'Fira Mono';word-spacing:0px;fill:#ffffff;stroke-width:0.264583"
       id="path163" />
    <path
       d="M 73.723363,62.791353 H 68.16359 v 0.987777 h 2.158998 v 7.761105 H 68.16359 v 0.973666 h 5.559773 V 71.540235 H 71.564364 V 63.77913 h 2.158998 z"
       style="font-style:normal;font-variant:normal;font-weight:normal;font-stretch:normal;font-size:14.1111px;line-height:1.25;font-family:'Fira Mono';-inkscape-font-specification:'Fira Mono';word-spacing:0px;fill:#ffffff;stroke-width:0.264583"
       id="path165" />
    <path
       d="m 80.750669,72.513901 h 1.721554 v -9.722548 h -1.142999 v 4.868329 c 0,1.749777 0.155222,3.316109 0.169333,3.71122 l -3.485442,-8.579549 h -1.66511 v 9.722548 h 1.142999 v -4.86833 c 0,-1.495776 -0.141111,-3.245553 -0.169333,-3.668886 z"
       style="font-style:normal;font-variant:normal;font-weight:normal;font-stretch:normal;font-size:14.1111px;line-height:1.25;font-family:'Fira Mono';-inkscape-font-specification:'Fira Mono';word-spacing:0px;fill:#ffffff;stroke-width:0.264583"
       id="path167" />
    <path
       d="m 88.469419,63.849685 h 2.935109 l 0.127,-1.058332 h -7.323661 v 1.058332 h 3.033886 v 8.664216 h 1.227666 z"
       style="font-style:normal;font-variant:normal;font-weight:normal;font-stretch:normal;font-size:14.1111px;line-height:1.25;font-family:'Fira Mono';-inkscape-font-specification:'Fira Mono';word-spacing:0px;fill:#ffffff;stroke-width:0.264583"
       id="path169" />
  </g>
</svg>
